# xmcd
#
# Track frame offsets:
#	150
#	11699
#	22280
#	32660
#	42758
#	54132
#	64386
#	75036
#	85479
#	99842
#
# Disc length: 1470 seconds
#
# Revision: 0
# Processed by: cddbd v1.5.2PL0 Copyright (c) Steve Scherf et al.
# Submitted via: dBpowerAMP V4.0
#
DISCID=6d05bc0a
DTITLE=Patsy Cline - Walkin' After Midnight
DYEAR=1960
DGENRE=Country
TTITLE0=Walkin' After Midnight
TTITLE1=Gotta Lot of Rhythm in My Soul
TTITLE2=I Love You Honey
TTITLE3=Three Cigarettes in an Ashtray
TTITLE4=Crazy Dreams
TTITLE5=How Can I Face Tomorrow?
TTITLE6=I Cried All the Way to the Alter
TTITLE7=Lovesick Blues
TTITLE8=Then You'll Know
TTITLE9=I Don't Wanta
EXTD=
EXTT0=
EXTT1=
EXTT2=
EXTT3=
EXTT4=
EXTT5=
EXTT6=
EXTT7=
EXTT8=
EXTT9=
PLAYORDER=
